<?xml version="1.0" encoding="UTF-8" standalone="no"?>
<svg
   version="1.1"
   width="20.2488"
   height="23.194201"
   viewBox="177.43 177.43 20.2488 23.194201"
   xml:space="preserve"
   id="svg196"
   xmlns="http://www.w3.org/2000/svg"
   xmlns:svg="http://www.w3.org/2000/svg">
<defs
   id="defs166">
</defs>
<rect
   x="-14.265599"
   y="-12.3229"
   width="100%"
   height="100%"
   fill="transparent"
   id="rect168" />
<g
   transform="matrix(0,0,0,0,-14.2656,-12.3229)"
   id="6fbbb05d-65c5-4ce4-befe-c1bd2b4b3dfd">
</g>
<g
   transform="translate(9.7344003,11.6771)"
   id="73c91d07-6a1c-4bf5-82a7-4e957e6e4945">
<rect
   style="visibility:hidden;opacity:1;fill:#ffffff;fill-rule:nonzero;stroke:none;stroke-width:1;stroke-linecap:butt;stroke-linejoin:miter;stroke-miterlimit:4;stroke-dasharray:none;stroke-dashoffset:0"
   vector-effect="non-scaling-stroke"
   x="-24"
   y="-24"
   rx="0"
   ry="0"
   width="48"
   height="48"
   id="rect171" />
</g>
<g
   transform="matrix(-0.33,0,0,-0.31,187.5544,189.0271)"
   id="d9ce9feb-7f51-48a4-a3eb-43fe5da16727">
<polygon
   style="opacity:1;fill:#0d47a1;fill-rule:nonzero;stroke:#000000;stroke-width:0;stroke-linecap:butt;stroke-linejoin:miter;stroke-miterlimit:4;stroke-dasharray:none;stroke-dashoffset:0"
   vector-effect="non-scaling-stroke"
   points="-30.68,37.41 -30.68,-37.41 30.68,0 "
   id="polygon174" />
</g>
<g
   transform="matrix(0,0,0,0,129.0544,-12.3229)"
   id="g179">
<g
   id="g177">
</g>
</g>
<g
   transform="matrix(0,0,0,0,129.0544,-12.3229)"
   id="g183">
<g
   id="g181">
</g>
</g>
<g
   transform="matrix(0,0,0,0,129.0544,-12.3229)"
   id="g187">
<g
   id="g185">
</g>
</g>
<g
   transform="matrix(-0.2,0,0,-0.2,129.7344,131.6771)"
   id="c36d66b6-a3d9-4956-90e3-b843d5387fe8">
<polygon
   style="opacity:1;fill:#1b5e20;fill-rule:nonzero;stroke:#000000;stroke-width:0;stroke-linecap:butt;stroke-linejoin:miter;stroke-miterlimit:4;stroke-dasharray:none;stroke-dashoffset:0"
   vector-effect="non-scaling-stroke"
   points="-30.68,37.41 -30.68,-37.41 30.68,0 "
   id="polygon189" />
</g>
<g
   transform="matrix(0,0,0,0,-14.2656,-12.3229)"
   id="g194">
<g
   id="g192">
</g>
</g>
</svg>
